<?xml version="1.0" encoding="UTF-8"?>
<svg xmlns="http://www.w3.org/2000/svg" xmlns:xlink="http://www.w3.org/1999/xlink" width="248pt" height="257pt" viewBox="0 0 248 257" version="1.1">
<g id="surface1">
<path style=" stroke:none;fill-rule:nonzero;fill:rgb(0%,63.529412%,61.568627%);fill-opacity:1;" d="M 186.46875 127.261719 C 186.46875 127.261719 186.46875 128.011719 188.625 129.511719 C 202.320312 140.558594 209.636719 151.238281 209.542969 172.960938 C 209.449219 200.117188 185.8125 219.78125 159.082031 219.78125 L 159.082031 257.242188 C 205.695312 257.242188 248 224.089844 248 176.796875 C 248 159.847656 243.402344 143.179688 231.863281 126.984375 C 232.429688 126.324219 234.867188 123.421875 236.933594 119.773438 C 239.746094 114.714844 240.308594 108.625 240.308594 88.308594 L 240.308594 0 L 120.808594 0 L 120.808594 70.324219 L 82.730469 70.324219 L 82.730469 109 L 159.734375 109 L 159.734375 39.613281 L 202.695312 39.613281 L 202.695312 99.449219 C 202.695312 99.449219 204.476562 116.210938 186.46875 127.261719 "/>
<path style=" stroke:none;fill-rule:nonzero;fill:rgb(0%,58.431373%,72.156863%);fill-opacity:1;" d="M 83.101562 0 L 71.941406 0 C 51.679688 0.5625 30.484375 6.929688 16.320312 23.039062 C 1.40625 39.894531 0 54.96875 0 79.785156 C 0 96.640625 0 257.148438 0 257.148438 L 121.375 257.148438 L 121.375 187.570312 L 159.828125 187.570312 L 159.828125 148.425781 L 82.730469 148.425781 L 82.730469 218.566406 L 38.644531 218.566406 L 38.644531 71.546875 C 38.644531 71.546875 35.734375 39.613281 74.289062 38.769531 L 83.105469 38.394531 L 83.105469 0 "/>
</g>
</svg>
